<svg xmlns="http://www.w3.org/2000/svg" version="1.1" xmlns:xlink="http://www.w3.org/1999/xlink" xmlns:svgjs="http://svgjs.dev/svgjs" width="45" height="45"><svg width="45" height="45" viewBox="0 0 45 45" fill="none" xmlns="http://www.w3.org/2000/svg">
<path fill-rule="evenodd" clip-rule="evenodd" d="M0 22.495C0 10.0694 10.0746 0 22.5 0C34.9302 0 45 10.0694 45 22.497C45 34.9236 34.9302 45 22.5 45C10.0746 44.998 0.000969413 34.9216 0.000969413 22.495" fill="#EA2427"></path>
<path fill-rule="evenodd" clip-rule="evenodd" d="M12.1976 18.3262C12.1976 17.5439 11.9171 16.8752 11.3579 16.3248C10.8074 15.7648 10.1372 15.4867 9.33198 15.4867H6.47592V18.3252C6.47592 19.1066 6.74592 19.7801 7.29645 20.3488C7.56111 20.6204 7.87816 20.8348 8.22817 20.9789C8.57819 21.123 8.9538 21.1938 9.33198 21.1869C10.1372 21.1869 10.8074 20.9098 11.3579 20.3498C11.9171 19.7801 12.1967 19.1066 12.1967 18.3252L12.1976 18.3262ZM6.46251 13.236V13.6036H9.33294C10.6829 13.6036 11.8415 14.0655 12.8008 14.9873C13.7707 15.9062 14.258 17.0166 14.258 18.3262C14.258 19.6348 13.7697 20.7539 12.8008 21.6863C11.83 22.6042 10.6772 23.07 9.33198 23.07C7.99156 23.07 6.83783 22.6042 5.8689 21.6863C4.90379 20.7539 4.42603 19.6339 4.42603 18.3252V11.25C4.98134 11.25 5.46294 11.4482 5.85358 11.8427C6.25954 12.2247 6.46156 12.6953 6.46156 13.236H6.46251ZM22.5045 21.1465V18.3079C22.5045 17.5266 22.225 16.8578 21.6649 16.2978C21.1153 15.7282 20.4451 15.4463 19.6446 15.4463C18.8433 15.4463 18.1635 15.7282 17.6082 16.2978C17.3424 16.5594 17.1322 16.8726 16.9905 17.2183C16.8488 17.564 16.7785 17.935 16.7838 18.3089C16.7838 19.0854 17.0586 19.758 17.6082 20.318C18.1635 20.8684 18.8433 21.1465 19.6437 21.1465H22.5045ZM24.563 18.3079V23.0295H19.6437C18.3033 23.0295 17.1447 22.5677 16.1758 21.6555C15.2155 20.7318 14.7339 19.6175 14.7339 18.3079C14.7339 16.9993 15.2155 15.8793 16.1758 14.9613C17.1457 14.0299 18.3033 13.5632 19.6437 13.5632C20.9841 13.5632 22.1378 14.0299 23.1077 14.9613C24.0815 15.8793 24.563 16.9993 24.563 18.3079ZM24.564 33.3744H22.5285V24.0543C23.0886 24.0543 23.5606 24.2525 23.9618 24.647C24.362 25.0329 24.564 25.4996 24.564 26.0452V27.8012H27.2602C27.6374 27.8073 28.0118 27.7346 28.3597 27.5879C28.7076 27.4411 29.0214 27.2235 29.2813 26.9487C29.8414 26.3839 29.942 26.1346 30.0827 25.5092C30.0827 25.5092 30.1737 24.0543 32.1566 24.0543V24.9396C32.1566 25.6968 31.9775 26.4127 31.6204 27.0805C31.2738 27.7444 30.7766 28.317 30.1689 28.7519C30.7789 29.1865 31.2768 29.7611 31.6213 30.4281C31.9744 31.0778 32.1585 31.8066 32.1566 32.5469V33.3744H30.1172V32.5469C30.1172 31.7742 29.8414 31.1007 29.2813 30.5359C29.0214 30.2613 28.7077 30.0439 28.36 29.8974C28.0123 29.7508 27.6381 29.6782 27.2611 29.6843H24.564V33.3744ZM40.6702 28.7759C40.6702 29.5476 40.3906 30.2212 39.8305 30.786C39.2752 31.3547 38.6002 31.5674 37.8103 31.5674C37.0089 31.5674 36.3291 31.3595 35.7738 30.7995C35.2146 30.2299 34.9351 29.5573 34.9351 28.7759V26.0452C34.9351 25.4996 34.7369 25.0329 34.3319 24.647C34.1459 24.4554 33.9229 24.304 33.6766 24.202C33.4303 24.1001 33.1659 24.0498 32.8995 24.0543V28.7759C32.8995 30.0846 33.3811 31.2046 34.3453 32.136C35.3056 33.0598 36.4593 33.5207 37.8093 33.5207C39.1497 33.5207 40.3035 33.0588 41.2628 32.136C42.2279 31.2046 42.7057 30.0836 42.7057 28.7759V24.0543C42.438 24.0511 42.1723 24.1019 41.9245 24.2037C41.6766 24.3055 41.4516 24.4563 41.2628 24.647C41.0723 24.8256 40.9211 25.0422 40.8188 25.283C40.7166 25.5238 40.6656 25.7834 40.6692 26.0452V28.7759H40.6702Z" fill="#F7FAFB"></path>
</svg><style>@media (prefers-color-scheme: light) { :root { filter: none; } }
@media (prefers-color-scheme: dark) { :root { filter: none; } }
</style></svg>